<mxfile host="app.diagrams.net" modified="2022-07-22T08:45:40.538Z" agent="5.0 (Macintosh; Intel Mac OS X 10_15_7) AppleWebKit/537.36 (KHTML, like Gecko) Chrome/103.0.0.0 Safari/537.36" etag="saSa3dTOnxBte5iG-ZLZ" version="17.4.6" type="github">
  <diagram id="GUKf0wy9YKeM1viG0Dul" name="Page-1">
    <mxGraphModel dx="946" dy="589" grid="1" gridSize="10" guides="1" tooltips="1" connect="1" arrows="1" fold="1" page="1" pageScale="1" pageWidth="827" pageHeight="1169" math="0" shadow="0">
      <root>
        <mxCell id="0" />
        <mxCell id="1" parent="0" />
        <mxCell id="-Pbz_VmxnBZSm79W5Z-L-3" value="" style="edgeStyle=orthogonalEdgeStyle;rounded=0;orthogonalLoop=1;jettySize=auto;html=1;" parent="1" source="-Pbz_VmxnBZSm79W5Z-L-1" target="-Pbz_VmxnBZSm79W5Z-L-2" edge="1">
          <mxGeometry relative="1" as="geometry" />
        </mxCell>
        <mxCell id="-Pbz_VmxnBZSm79W5Z-L-1" value="进入页面" style="ellipse;whiteSpace=wrap;html=1;" parent="1" vertex="1">
          <mxGeometry x="230" y="10" width="100" height="60" as="geometry" />
        </mxCell>
        <mxCell id="-Pbz_VmxnBZSm79W5Z-L-5" value="" style="edgeStyle=orthogonalEdgeStyle;rounded=0;orthogonalLoop=1;jettySize=auto;html=1;" parent="1" source="-Pbz_VmxnBZSm79W5Z-L-2" target="-Pbz_VmxnBZSm79W5Z-L-4" edge="1">
          <mxGeometry relative="1" as="geometry" />
        </mxCell>
        <mxCell id="-Pbz_VmxnBZSm79W5Z-L-45" value="" style="edgeStyle=orthogonalEdgeStyle;rounded=0;orthogonalLoop=1;jettySize=auto;html=1;entryX=0.5;entryY=0;entryDx=0;entryDy=0;" parent="1" source="-Pbz_VmxnBZSm79W5Z-L-2" target="-Pbz_VmxnBZSm79W5Z-L-16" edge="1">
          <mxGeometry relative="1" as="geometry">
            <mxPoint x="560" y="300" as="targetPoint" />
            <Array as="points">
              <mxPoint x="460" y="130" />
              <mxPoint x="460" y="450" />
              <mxPoint x="280" y="450" />
            </Array>
          </mxGeometry>
        </mxCell>
        <mxCell id="-Pbz_VmxnBZSm79W5Z-L-46" value="有缓存，进入到指定状态" style="edgeLabel;html=1;align=center;verticalAlign=middle;resizable=0;points=[];" parent="-Pbz_VmxnBZSm79W5Z-L-45" vertex="1" connectable="0">
          <mxGeometry x="-0.1962" y="-1" relative="1" as="geometry">
            <mxPoint as="offset" />
          </mxGeometry>
        </mxCell>
        <mxCell id="-Pbz_VmxnBZSm79W5Z-L-2" value="判断缓存" style="rhombus;whiteSpace=wrap;html=1;" parent="1" vertex="1">
          <mxGeometry x="200" y="90" width="160" height="80" as="geometry" />
        </mxCell>
        <mxCell id="-Pbz_VmxnBZSm79W5Z-L-48" value="" style="edgeStyle=orthogonalEdgeStyle;rounded=0;orthogonalLoop=1;jettySize=auto;html=1;" parent="1" source="-Pbz_VmxnBZSm79W5Z-L-4" target="-Pbz_VmxnBZSm79W5Z-L-47" edge="1">
          <mxGeometry relative="1" as="geometry" />
        </mxCell>
        <mxCell id="-Pbz_VmxnBZSm79W5Z-L-4" value="第一次进入，引导，收入动画，音效；再引导点击果树" style="rounded=1;whiteSpace=wrap;html=1;" parent="1" vertex="1">
          <mxGeometry x="220" y="190" width="120" height="60" as="geometry" />
        </mxCell>
        <mxCell id="-Pbz_VmxnBZSm79W5Z-L-19" value="" style="edgeStyle=orthogonalEdgeStyle;rounded=0;orthogonalLoop=1;jettySize=auto;html=1;" parent="1" source="-Pbz_VmxnBZSm79W5Z-L-16" target="-Pbz_VmxnBZSm79W5Z-L-18" edge="1">
          <mxGeometry relative="1" as="geometry" />
        </mxCell>
        <mxCell id="-Pbz_VmxnBZSm79W5Z-L-21" value="" style="edgeStyle=orthogonalEdgeStyle;rounded=0;orthogonalLoop=1;jettySize=auto;html=1;" parent="1" source="-Pbz_VmxnBZSm79W5Z-L-16" target="-Pbz_VmxnBZSm79W5Z-L-20" edge="1">
          <mxGeometry relative="1" as="geometry">
            <Array as="points">
              <mxPoint x="280" y="530" />
              <mxPoint x="100" y="530" />
            </Array>
          </mxGeometry>
        </mxCell>
        <mxCell id="-Pbz_VmxnBZSm79W5Z-L-23" value="" style="edgeStyle=orthogonalEdgeStyle;rounded=0;orthogonalLoop=1;jettySize=auto;html=1;" parent="1" source="-Pbz_VmxnBZSm79W5Z-L-16" target="-Pbz_VmxnBZSm79W5Z-L-22" edge="1">
          <mxGeometry relative="1" as="geometry">
            <Array as="points">
              <mxPoint x="280" y="530" />
              <mxPoint x="475" y="530" />
            </Array>
          </mxGeometry>
        </mxCell>
        <mxCell id="-Pbz_VmxnBZSm79W5Z-L-64" value="" style="edgeStyle=orthogonalEdgeStyle;rounded=0;orthogonalLoop=1;jettySize=auto;html=1;" parent="1" source="-Pbz_VmxnBZSm79W5Z-L-16" target="-Pbz_VmxnBZSm79W5Z-L-63" edge="1">
          <mxGeometry relative="1" as="geometry">
            <Array as="points">
              <mxPoint x="740" y="490" />
            </Array>
          </mxGeometry>
        </mxCell>
        <mxCell id="-Pbz_VmxnBZSm79W5Z-L-66" value="" style="edgeStyle=orthogonalEdgeStyle;rounded=0;orthogonalLoop=1;jettySize=auto;html=1;" parent="1" source="-Pbz_VmxnBZSm79W5Z-L-16" target="-Pbz_VmxnBZSm79W5Z-L-65" edge="1">
          <mxGeometry relative="1" as="geometry" />
        </mxCell>
        <mxCell id="-Pbz_VmxnBZSm79W5Z-L-68" value="" style="edgeStyle=orthogonalEdgeStyle;rounded=0;orthogonalLoop=1;jettySize=auto;html=1;" parent="1" source="-Pbz_VmxnBZSm79W5Z-L-16" target="-Pbz_VmxnBZSm79W5Z-L-67" edge="1">
          <mxGeometry relative="1" as="geometry" />
        </mxCell>
        <mxCell id="-Pbz_VmxnBZSm79W5Z-L-16" value="正常活动页面展示" style="rounded=1;whiteSpace=wrap;html=1;" parent="1" vertex="1">
          <mxGeometry x="220" y="460" width="120" height="60" as="geometry" />
        </mxCell>
        <mxCell id="-Pbz_VmxnBZSm79W5Z-L-27" value="" style="edgeStyle=orthogonalEdgeStyle;rounded=0;orthogonalLoop=1;jettySize=auto;html=1;" parent="1" source="-Pbz_VmxnBZSm79W5Z-L-18" target="-Pbz_VmxnBZSm79W5Z-L-26" edge="1">
          <mxGeometry relative="1" as="geometry" />
        </mxCell>
        <mxCell id="-Pbz_VmxnBZSm79W5Z-L-18" value="点击果树抽奖" style="rhombus;whiteSpace=wrap;html=1;rounded=1;" parent="1" vertex="1">
          <mxGeometry x="205" y="550" width="150" height="60" as="geometry" />
        </mxCell>
        <mxCell id="-Pbz_VmxnBZSm79W5Z-L-35" value="" style="edgeStyle=orthogonalEdgeStyle;rounded=0;orthogonalLoop=1;jettySize=auto;html=1;" parent="1" source="-Pbz_VmxnBZSm79W5Z-L-20" target="-Pbz_VmxnBZSm79W5Z-L-34" edge="1">
          <mxGeometry relative="1" as="geometry" />
        </mxCell>
        <mxCell id="-Pbz_VmxnBZSm79W5Z-L-20" value="点击顶部红包区域" style="rhombus;whiteSpace=wrap;html=1;rounded=1;" parent="1" vertex="1">
          <mxGeometry x="30" y="540" width="140" height="80" as="geometry" />
        </mxCell>
        <mxCell id="-Pbz_VmxnBZSm79W5Z-L-29" value="" style="edgeStyle=orthogonalEdgeStyle;rounded=0;orthogonalLoop=1;jettySize=auto;html=1;" parent="1" source="-Pbz_VmxnBZSm79W5Z-L-22" target="-Pbz_VmxnBZSm79W5Z-L-28" edge="1">
          <mxGeometry relative="1" as="geometry">
            <Array as="points">
              <mxPoint x="475" y="690" />
            </Array>
          </mxGeometry>
        </mxCell>
        <mxCell id="-Pbz_VmxnBZSm79W5Z-L-38" value="播放音效" style="edgeLabel;html=1;align=center;verticalAlign=middle;resizable=0;points=[];" parent="-Pbz_VmxnBZSm79W5Z-L-29" vertex="1" connectable="0">
          <mxGeometry x="-0.122" y="2" relative="1" as="geometry">
            <mxPoint as="offset" />
          </mxGeometry>
        </mxCell>
        <mxCell id="-Pbz_VmxnBZSm79W5Z-L-22" value="摇一摇" style="rhombus;whiteSpace=wrap;html=1;rounded=1;" parent="1" vertex="1">
          <mxGeometry x="390" y="540" width="170" height="80" as="geometry" />
        </mxCell>
        <mxCell id="-Pbz_VmxnBZSm79W5Z-L-40" value="" style="edgeStyle=orthogonalEdgeStyle;rounded=0;orthogonalLoop=1;jettySize=auto;html=1;" parent="1" source="-Pbz_VmxnBZSm79W5Z-L-26" target="-Pbz_VmxnBZSm79W5Z-L-39" edge="1">
          <mxGeometry relative="1" as="geometry" />
        </mxCell>
        <mxCell id="-Pbz_VmxnBZSm79W5Z-L-26" value="果树动画" style="whiteSpace=wrap;html=1;rounded=1;" parent="1" vertex="1">
          <mxGeometry x="220" y="660" width="120" height="60" as="geometry" />
        </mxCell>
        <mxCell id="-Pbz_VmxnBZSm79W5Z-L-28" value="" style="shape=waypoint;sketch=0;size=6;pointerEvents=1;points=[];fillColor=default;resizable=0;rotatable=0;perimeter=centerPerimeter;snapToPoint=1;rounded=1;" parent="1" vertex="1">
          <mxGeometry x="320" y="670" width="40" height="40" as="geometry" />
        </mxCell>
        <mxCell id="-Pbz_VmxnBZSm79W5Z-L-30" value="增加顶部收入，音效" style="whiteSpace=wrap;html=1;rounded=1;" parent="1" vertex="1">
          <mxGeometry x="180" y="1050" width="120" height="60" as="geometry" />
        </mxCell>
        <mxCell id="zh2ter8LNVQhWxpeAhrf-2" value="" style="edgeStyle=orthogonalEdgeStyle;rounded=0;orthogonalLoop=1;jettySize=auto;html=1;" edge="1" parent="1" source="-Pbz_VmxnBZSm79W5Z-L-34" target="zh2ter8LNVQhWxpeAhrf-1">
          <mxGeometry relative="1" as="geometry" />
        </mxCell>
        <mxCell id="-Pbz_VmxnBZSm79W5Z-L-34" value="红包状态变化" style="rounded=1;whiteSpace=wrap;html=1;" parent="1" vertex="1">
          <mxGeometry x="40" y="660" width="120" height="60" as="geometry" />
        </mxCell>
        <mxCell id="-Pbz_VmxnBZSm79W5Z-L-43" value="" style="edgeStyle=orthogonalEdgeStyle;rounded=0;orthogonalLoop=1;jettySize=auto;html=1;" parent="1" source="-Pbz_VmxnBZSm79W5Z-L-39" target="-Pbz_VmxnBZSm79W5Z-L-42" edge="1">
          <mxGeometry relative="1" as="geometry">
            <Array as="points">
              <mxPoint x="280" y="850" />
              <mxPoint x="380" y="850" />
            </Array>
          </mxGeometry>
        </mxCell>
        <mxCell id="-Pbz_VmxnBZSm79W5Z-L-57" value="" style="edgeStyle=orthogonalEdgeStyle;rounded=0;orthogonalLoop=1;jettySize=auto;html=1;" parent="1" source="-Pbz_VmxnBZSm79W5Z-L-39" target="-Pbz_VmxnBZSm79W5Z-L-56" edge="1">
          <mxGeometry relative="1" as="geometry" />
        </mxCell>
        <mxCell id="-Pbz_VmxnBZSm79W5Z-L-39" value="判断第几次，&lt;br&gt;第5次开始都是福袋" style="rhombus;whiteSpace=wrap;html=1;rounded=1;" parent="1" vertex="1">
          <mxGeometry x="195" y="750" width="170" height="80" as="geometry" />
        </mxCell>
        <mxCell id="-Pbz_VmxnBZSm79W5Z-L-62" value="" style="edgeStyle=orthogonalEdgeStyle;rounded=0;orthogonalLoop=1;jettySize=auto;html=1;" parent="1" source="-Pbz_VmxnBZSm79W5Z-L-42" target="-Pbz_VmxnBZSm79W5Z-L-61" edge="1">
          <mxGeometry relative="1" as="geometry" />
        </mxCell>
        <mxCell id="-Pbz_VmxnBZSm79W5Z-L-42" value="恭喜获得福袋， 音效" style="whiteSpace=wrap;html=1;rounded=1;" parent="1" vertex="1">
          <mxGeometry x="370" y="870" width="120" height="60" as="geometry" />
        </mxCell>
        <mxCell id="-Pbz_VmxnBZSm79W5Z-L-52" value="" style="edgeStyle=orthogonalEdgeStyle;rounded=0;orthogonalLoop=1;jettySize=auto;html=1;" parent="1" source="-Pbz_VmxnBZSm79W5Z-L-47" target="-Pbz_VmxnBZSm79W5Z-L-51" edge="1">
          <mxGeometry relative="1" as="geometry" />
        </mxCell>
        <mxCell id="-Pbz_VmxnBZSm79W5Z-L-47" value="恭喜获得红包，金额随机，机会减1" style="whiteSpace=wrap;html=1;rounded=1;" parent="1" vertex="1">
          <mxGeometry x="220" y="270" width="120" height="60" as="geometry" />
        </mxCell>
        <mxCell id="-Pbz_VmxnBZSm79W5Z-L-53" value="" style="edgeStyle=orthogonalEdgeStyle;rounded=0;orthogonalLoop=1;jettySize=auto;html=1;" parent="1" source="-Pbz_VmxnBZSm79W5Z-L-51" target="-Pbz_VmxnBZSm79W5Z-L-16" edge="1">
          <mxGeometry relative="1" as="geometry" />
        </mxCell>
        <mxCell id="-Pbz_VmxnBZSm79W5Z-L-51" value="广告素材" style="whiteSpace=wrap;html=1;rounded=1;" parent="1" vertex="1">
          <mxGeometry x="220" y="370" width="120" height="60" as="geometry" />
        </mxCell>
        <mxCell id="-Pbz_VmxnBZSm79W5Z-L-59" value="" style="edgeStyle=orthogonalEdgeStyle;rounded=0;orthogonalLoop=1;jettySize=auto;html=1;" parent="1" source="-Pbz_VmxnBZSm79W5Z-L-56" target="-Pbz_VmxnBZSm79W5Z-L-58" edge="1">
          <mxGeometry relative="1" as="geometry" />
        </mxCell>
        <mxCell id="-Pbz_VmxnBZSm79W5Z-L-56" value="恭喜获得红包，2-4次固定金额" style="whiteSpace=wrap;html=1;rounded=1;" parent="1" vertex="1">
          <mxGeometry x="180" y="870" width="120" height="60" as="geometry" />
        </mxCell>
        <mxCell id="-Pbz_VmxnBZSm79W5Z-L-60" value="" style="edgeStyle=orthogonalEdgeStyle;rounded=0;orthogonalLoop=1;jettySize=auto;html=1;" parent="1" source="-Pbz_VmxnBZSm79W5Z-L-58" target="-Pbz_VmxnBZSm79W5Z-L-30" edge="1">
          <mxGeometry relative="1" as="geometry" />
        </mxCell>
        <mxCell id="-Pbz_VmxnBZSm79W5Z-L-58" value="广告素材" style="whiteSpace=wrap;html=1;rounded=1;" parent="1" vertex="1">
          <mxGeometry x="180" y="960" width="120" height="60" as="geometry" />
        </mxCell>
        <mxCell id="-Pbz_VmxnBZSm79W5Z-L-61" value="广告素材" style="whiteSpace=wrap;html=1;rounded=1;" parent="1" vertex="1">
          <mxGeometry x="370" y="960" width="120" height="60" as="geometry" />
        </mxCell>
        <mxCell id="-Pbz_VmxnBZSm79W5Z-L-63" value="点击奖品，跳转dsp二级页" style="whiteSpace=wrap;html=1;rounded=1;" parent="1" vertex="1">
          <mxGeometry x="690" y="380" width="120" height="60" as="geometry" />
        </mxCell>
        <mxCell id="-Pbz_VmxnBZSm79W5Z-L-65" value="点击小手，跳转其他活动页" style="whiteSpace=wrap;html=1;rounded=1;" parent="1" vertex="1">
          <mxGeometry x="540" y="380" width="120" height="60" as="geometry" />
        </mxCell>
        <mxCell id="-Pbz_VmxnBZSm79W5Z-L-67" value="点击提现，弹窗，但是不能真的提现" style="whiteSpace=wrap;html=1;rounded=1;" parent="1" vertex="1">
          <mxGeometry x="610" y="600" width="120" height="60" as="geometry" />
        </mxCell>
        <mxCell id="-Pbz_VmxnBZSm79W5Z-L-74" value="" style="edgeStyle=orthogonalEdgeStyle;rounded=0;orthogonalLoop=1;jettySize=auto;html=1;" parent="1" source="-Pbz_VmxnBZSm79W5Z-L-73" target="-Pbz_VmxnBZSm79W5Z-L-65" edge="1">
          <mxGeometry relative="1" as="geometry" />
        </mxCell>
        <mxCell id="-Pbz_VmxnBZSm79W5Z-L-73" value="按照之前的逻辑，根据&lt;span&gt;actChangeType判断剩余次数5次或6次出现&lt;/span&gt;" style="whiteSpace=wrap;html=1;shape=mxgraph.basic.cloud_callout" parent="1" vertex="1">
          <mxGeometry x="570" y="210" width="170" height="110" as="geometry" />
        </mxCell>
        <mxCell id="-Pbz_VmxnBZSm79W5Z-L-77" value="" style="edgeStyle=orthogonalEdgeStyle;rounded=0;orthogonalLoop=1;jettySize=auto;html=1;" parent="1" source="-Pbz_VmxnBZSm79W5Z-L-75" target="-Pbz_VmxnBZSm79W5Z-L-76" edge="1">
          <mxGeometry relative="1" as="geometry" />
        </mxCell>
        <mxCell id="-Pbz_VmxnBZSm79W5Z-L-75" value="依次可领取，领取后置灰，开始倒计时下个变成可领取" style="whiteSpace=wrap;html=1;shape=mxgraph.basic.cloud_callout" parent="1" vertex="1">
          <mxGeometry x="8.75" y="360" width="142.5" height="120" as="geometry" />
        </mxCell>
        <mxCell id="-Pbz_VmxnBZSm79W5Z-L-76" value="" style="shape=waypoint;sketch=0;size=6;pointerEvents=1;points=[];fillColor=default;resizable=0;rotatable=0;perimeter=centerPerimeter;snapToPoint=1;" parent="1" vertex="1">
          <mxGeometry x="60" y="530" width="40" height="40" as="geometry" />
        </mxCell>
        <mxCell id="zh2ter8LNVQhWxpeAhrf-4" value="" style="edgeStyle=orthogonalEdgeStyle;rounded=0;orthogonalLoop=1;jettySize=auto;html=1;" edge="1" parent="1" source="zh2ter8LNVQhWxpeAhrf-1" target="zh2ter8LNVQhWxpeAhrf-3">
          <mxGeometry relative="1" as="geometry" />
        </mxCell>
        <mxCell id="zh2ter8LNVQhWxpeAhrf-1" value="收入动画，音效" style="whiteSpace=wrap;html=1;rounded=1;" vertex="1" parent="1">
          <mxGeometry x="40" y="870" width="120" height="60" as="geometry" />
        </mxCell>
        <mxCell id="zh2ter8LNVQhWxpeAhrf-3" value="广告素材" style="whiteSpace=wrap;html=1;rounded=1;" vertex="1" parent="1">
          <mxGeometry x="40" y="960" width="120" height="60" as="geometry" />
        </mxCell>
      </root>
    </mxGraphModel>
  </diagram>
</mxfile>
